<?xml version="1.0" encoding="utf-8" ?>	<!-- Generator: Assembly 2.4 - http://assemblyapp.co -->	<svg version="1.1" xmlns="http://www.w3.org/2000/svg" xmlns:xlink="http://www.w3.org/1999/xlink" width="4096.00" height="2341.00" viewBox="0 0 4096.0 2341.0">		<g id="document" transform="scale(13.653333333333334 13.653333333333334) translate(150.22610385059366 85.71428571428571)">			<path d="M69.0423,-53.0288 L99.8322,-53.0288 L99.6119,-64.6359 L27.3403,-64.6359 L27.5606,-53.0288 L56.4381,-53.0288 L56.2178,-40.1191 L-15.0507,-40.1191 L-15.0507,-28.916 L49.3671,-28.916 L-24.8232,24.7295 L-24.8232,24.7295 L-24.8232,-28.916 L-15.0507,-28.916 L-15.0507,-40.1191 L-24.6393,-40.1191 L-24.7232,-53.0288 L-24.7232,-53.0288 L4.6451,-53.0288 L4.42479,-64.6359 L-67.8467,-64.6359 L-67.6264,-53.0288 L-37.3274,-53.0288 L-37.2435,-40.1191 L-68.9207,-40.1191 C-98.6569,-40.1191 -122.791,-15.9854 -122.791,13.7509 C-122.791,43.4871 -98.6569,67.6209 -68.9207,67.6209 L-15.0507,67.6209 L-15.0507,56.9536 L-50.1082,56.9536 L57.3422,-20.7416 L57.3422,56.9536 L-15.0507,56.9536 L-15.0507,67.6209 L68.9207,67.6209 C98.6569,67.6209 122.791,43.4871 122.791,13.7509 C122.791,-15.9854 98.6569,-40.1191 68.9207,-40.1191 L68.822,-40.1191 L69.0423,-53.0288 L69.0423,-53.0288 Z M-37.3274,33.7711 L-57.7299,48.5237 L-57.7299,-28.916 L-37.3274,-28.916 L-37.3274,33.7711 Z M69.0423,-28.9157 C86.9231,-28.8511 112.812,-14.5361 112.812,13.7509 C112.812,42.0378 86.9231,56.8863 69.0423,56.9533 L69.0423,-28.9157 Z M-69.43,56.9496 C-87.2949,56.6716 -112.812,41.834 -112.812,13.7509 C-112.812,-14.3323 -87.2949,-28.6441 -69.43,-28.9121 L-69.43,56.9496 Z " fill="#77a2ca" fill-opacity="1.00" />		</g>	</svg>